<?xml version="1.0" encoding="UTF-8"?>
<svg width="35px" height="35px" viewBox="0 0 35 35" version="1.1" xmlns="http://www.w3.org/2000/svg" xmlns:xlink="http://www.w3.org/1999/xlink">
    <!-- Generator: Sketch 50.2 (55047) - http://www.bohemiancoding.com/sketch -->
    <title>slack-white</title>
    <desc>Created with Sketch.</desc>
    <defs></defs>
    <g id="Page-1" stroke="none" stroke-width="1" fill="none" fill-rule="evenodd">
        <g id="slack-white" transform="translate(0.000000, 1.000000)">
            <circle id="Oval" fill="#FFFFFF" cx="17" cy="17" r="17"></circle>
            <g id="Slack_Mark" transform="translate(4.327273, 4.327273)" fill-rule="nonzero">
                <path d="M16.3406061,1.66909091 C15.9490909,0.494545455 14.6921212,-0.144242424 13.5175758,0.226666667 C12.3430303,0.618181818 11.7042424,1.87515152 12.0751515,3.04969697 L17.8654545,20.8533333 C18.2569697,21.9454545 19.4521212,22.5636364 20.5854545,22.2339394 C21.7806061,21.8836364 22.5018182,20.6266667 22.110303,19.4727273 C22.110303,19.4315152 16.3406061,1.66909091 16.3406061,1.66909091 Z" id="Shape" fill="#ECB32D"></path>
                <path d="M7.3769697,4.57454545 C6.98545455,3.4 5.72848485,2.76121212 4.55393939,3.13212121 C3.37939394,3.52363636 2.74060606,4.78060606 3.11151515,5.95515152 L8.90181818,23.7587879 C9.29333333,24.8509091 10.4884848,25.4690909 11.6218182,25.1393939 C12.8169697,24.7890909 13.5381818,23.5321212 13.1466667,22.3781818 C13.1466667,22.3369697 7.3769697,4.57454545 7.3769697,4.57454545 Z" id="Shape" fill="#63C1A0"></path>
                <path d="M23.6351515,16.4024242 C24.809697,16.0109091 25.4484848,14.7539394 25.0775758,13.5793939 C24.6860606,12.4048485 23.4290909,11.7660606 22.2545455,12.1369697 L4.43030303,17.9478788 C3.33818182,18.3393939 2.72,19.5345455 3.04969697,20.6678788 C3.4,21.8630303 4.6569697,22.5842424 5.81090909,22.1927273 C5.85212121,22.1927273 23.6351515,16.4024242 23.6351515,16.4024242 Z" id="Shape" fill="#E01A59"></path>
                <path d="M8.13939394,21.4509091 C9.29333333,21.08 10.7975758,20.5854545 12.4048485,20.070303 C12.0339394,18.9163636 11.5393939,17.4121212 11.0242424,15.8048485 L6.75878788,17.1854545 L8.13939394,21.4509091 Z" id="Shape" fill="#331433"></path>
                <path d="M17.1236364,18.5248485 C18.7309091,18.009697 20.2351515,17.5151515 21.3890909,17.1442424 C21.0181818,15.990303 20.5236364,14.4860606 20.0084848,12.8787879 L15.7430303,14.2593939 L17.1236364,18.5248485 Z" id="Shape" fill="#D62027"></path>
                <path d="M20.7090909,7.43878788 C21.8836364,7.04727273 22.5224242,5.79030303 22.1515152,4.61575758 C21.76,3.44121212 20.5030303,2.80242424 19.3284848,3.17333333 L1.52484848,8.96363636 C0.432727273,9.35515152 -0.185454545,10.550303 0.144242424,11.6836364 C0.494545455,12.8787879 1.75151515,13.6 2.90545455,13.2084848 C2.94666667,13.2084848 20.7090909,7.43878788 20.7090909,7.43878788 Z" id="Shape" fill="#89D3DF"></path>
                <path d="M5.23393939,12.4666667 C6.38787879,12.0957576 7.89212121,11.6012121 9.49939394,11.0860606 C8.98424242,9.47878788 8.48969697,7.97454545 8.11878788,6.82060606 L3.85333333,8.20121212 L5.23393939,12.4666667 Z" id="Shape" fill="#258B74"></path>
                <path d="M14.1975758,9.56121212 C15.8048485,9.04606061 17.3090909,8.55151515 18.4630303,8.18060606 C17.9478788,6.57333333 17.4533333,5.06909091 17.0824242,3.91515152 L12.8169697,5.29575758 L14.1975758,9.56121212 Z" id="Shape" fill="#819C3C"></path>
            </g>
        </g>
    </g>
</svg>